<?xml version="1.0" encoding="UTF-8"?>
<svg xmlns="http://www.w3.org/2000/svg" width="144" height="144" viewBox="0 0 432 360">
    <path style="transform: scale(0.97); transform-origin: center center" fill="#BF2A70" stroke="#333333"
          stroke-width="10"
          d="m432,252c0,29.82-12.09,56.82-31.63,76.37-19.55,19.54-46.55,31.63-76.37,31.63H60c-33.14,0-60-26.86-60-60h0c0-6.63,5.37-12,12-12h96s108,0,108,0h108c9.94,0,18.94-4.03,25.46-10.54,6.51-6.52,10.54-15.52,10.54-25.46s-4.03-18.94-10.54-25.46c-6.52-6.51-15.52-10.54-25.46-10.54h-156c-33.14,0-60-26.86-60-60h0c0-6.63,5.37-12,12-12h96s6.15,0,6.15,0h101.85c9.94,0,18.94-4.03,25.46-10.54,6.51-6.52,10.54-15.52,10.54-25.46s-4.03-18.94-10.54-25.46c-6.52-6.51-15.52-10.54-25.46-10.54h-48c-33.14,0-60-26.86-60-60h0C216,5.37,221.37,0,228,0h96c29.82,0,56.82,12.09,76.37,31.63,19.54,19.55,31.63,46.55,31.63,76.37,0,25.81-9.05,49.5-24.15,68.08-1.86,2.29-1.86,5.55,0,7.84,15.1,18.58,24.15,42.27,24.15,68.08Z"/>
</svg>