<?xml version="1.0" encoding="utf-8"?>
<svg version="1.1" xmlns="http://www.w3.org/2000/svg" x="0px" y="0px"
	 viewBox="0 0 1025 568.4" style="enable-background:new 0 0 1025 568.4;" xml:space="preserve">
<path d="M512.5,311.9c70.7,0,128-57.3,128-128c0-32.4-12.2-63.5-34.3-87.2c0.1-0.6,0.1-0.8,0.2-1.3
	c15.3-8.6,29.4-19.3,41.8-31.7c8-8,15.3-16.7,21.8-26c8.1-11.6,14.9-24,20.2-37.1c12.4,2.8,24.6,6.1,36.7,9.8
	c36.8,11.3,72.3,26.7,105.6,46c80.4,46.6,146.7,114,191.9,195.2c0,0.1,0.1,0.3,0.1,0.4c-0.8,69.1-24,136-66.1,190.7l0,0
	c-81.3,105.7-219.6,150.1-347.2,111.3v-1.7c166-54,258.2-230.9,207.5-397.9H817c-54.7,168.2-235.3,260.2-403.5,205.5
	C316.1,328.4,239.7,252,208,154.6h-1.7c-50.8,167,41.5,343.9,207.5,397.9v1.7c-169.1,51.5-348-43.8-399.5-212.9
	C5.7,312.8,1,283.4,0.5,253.8c0-0.1,0.1-0.3,0.1-0.4C64.5,137.2,170.9,50.2,297.5,10.8c12-3.7,24.2-7,36.5-9.9l1,0.5
	c5.4,12.9,12.1,25.2,20.1,36.6c6.4,9.1,13.6,17.7,21.5,25.6c12.4,12.4,26.5,23.1,41.8,31.7c0.1,0.6,0.1,0.8,0.2,1.3
	c-48.1,51.8-45.2,132.8,6.5,180.9C449,299.7,480.1,311.9,512.5,311.9"/>
</svg>
